<svg width="130" height="46" viewBox="0 0 130 46" fill="none" xmlns="http://www.w3.org/2000/svg">
<path d="M38.5874 12.7373L23.0457 3.76536C23.0611 3.64731 23.0816 3.53439 23.0816 3.4112C23.0816 1.92273 21.8754 0.716553 20.387 0.716553C18.8985 0.716553 17.6923 1.92273 17.6923 3.4112C17.6923 3.53439 17.7128 3.64731 17.7282 3.76536L4.33197 11.4952C3.87516 11.1461 3.3157 10.9254 2.69465 10.9254C1.20618 10.9254 0 12.1316 0 13.6201C0 14.7441 0.69291 15.7091 1.67325 16.1094V31.5588C0.69291 31.9591 0 32.924 0 34.0481C0 35.5366 1.20618 36.7428 2.69465 36.7428C3.3157 36.7428 3.87516 36.5272 4.33197 36.173L19.8737 45.1449C20.0328 45.2373 20.2073 45.2835 20.387 45.2835C20.5666 45.2835 20.7411 45.2373 20.9002 45.1449L38.5874 34.9309C38.9056 34.7461 39.1007 34.4125 39.1007 34.0481V13.6201C39.1007 13.2557 38.9056 12.9169 38.5874 12.7373ZM3.72118 31.5588V16.1094C3.94702 16.017 4.1472 15.8887 4.3371 15.745L19.3707 24.4243V42.4913L5.35851 34.4023C5.3739 34.2842 5.39443 34.1713 5.39443 34.0481C5.39443 32.924 4.70152 31.9591 3.72118 31.5588ZM20.387 6.10072C21.008 6.10072 21.5675 5.88515 22.0243 5.531L36.0365 13.6201L20.3921 22.6536L5.35337 13.9742C5.36877 13.8562 5.3893 13.7433 5.3893 13.6201C5.3893 13.4969 5.36877 13.384 5.35337 13.2659L18.7496 5.531C19.2064 5.88002 19.7659 6.10072 20.387 6.10072Z" fill="#0096D1"/>
<path d="M67.0068 18.9993V16.5151H54.6884C53.1332 16.5151 51.8705 17.7778 51.8705 19.333V28.8797C51.8705 30.4349 53.1332 31.6976 54.6884 31.6976H67.0068V29.2134H54.3342V19.0045H67.0068V18.9993Z" fill="#717070"/>
<path d="M76.1688 23.9883V26.4776H83.2365V31.6976H85.7463V19.333C85.7463 17.7778 84.4734 16.5151 82.9028 16.5151H73.3817C71.8265 16.5151 70.5639 17.7778 70.5639 19.333V31.6976H73.0276V18.9993H83.2365V23.9883H76.1688Z" fill="#717070"/>
<path d="M104.65 28.8797V19.333C104.65 17.7778 103.377 16.5151 101.806 16.5151H89.4623V18.9993H102.135V29.2082H91.926V22.1405H89.4623V31.6976H101.806C103.372 31.6976 104.65 30.4349 104.65 28.8797Z" fill="#717070"/>
<path d="M130 13.22H126.679V16.5408H130V13.22Z" fill="#0096D1"/>
<path d="M129.548 19.6663H127.131V31.6972H129.548V19.6663Z" fill="#0096D1"/>
<path d="M123.507 28.8797V19.333C123.507 17.7778 122.234 16.5151 120.664 16.5151H108.325V18.9993H120.997V29.2082H110.789V22.1405H108.325V31.6976H120.664C122.229 31.6976 123.507 30.4349 123.507 28.8797Z" fill="#0096D1"/>
</svg>
