<svg width="199" height="32" viewBox="0 0 199 32" fill="none" xmlns="http://www.w3.org/2000/svg">
<path d="M28.066 12.3141V19.7016L28.2 20.2439C28.2 20.2439 28.2525 20.3932 28.1133 20.3932H25.7626C25.6234 20.3932 25.676 20.2439 25.676 20.2439L25.8099 19.7016V12.3141L25.6602 11.7588C25.6497 11.6121 25.7469 11.6121 25.7469 11.6121H28.1264C28.1264 11.6121 28.2262 11.6121 28.2131 11.7588L28.0634 12.3141H28.066Z" fill="#141414"/>
<path d="M99.3026 20.2439L98.7589 19.7016L96.0879 15.8428L98.3545 12.3167L98.9297 11.7614C98.9428 11.6147 98.843 11.6147 98.843 11.6147H96.2034C96.2034 11.6147 96.1036 11.6147 96.1168 11.7614L96.0984 12.3167L94.7983 14.2789L93.7004 12.3167L93.6821 11.7614C93.6899 11.6147 93.5954 11.6147 93.5954 11.6147H90.9768C90.9768 11.6147 90.877 11.6147 90.8902 11.7614L91.4417 12.3167L93.64 16.0524L91.1134 19.7042L90.5724 20.2465C90.5724 20.2465 90.5251 20.3958 90.659 20.3958H93.1857C93.3249 20.3958 93.2723 20.2465 93.2723 20.2465L93.3695 19.7042L94.9139 17.2863L96.4004 19.7042L96.3925 20.2465C96.3925 20.2465 96.3426 20.3958 96.4818 20.3958H99.2081C99.3446 20.3958 99.2974 20.2465 99.2974 20.2465" fill="#141414"/>
<path d="M14.9523 11.6094H12.5727C12.5727 11.6094 12.4729 11.6094 12.486 11.7561L12.6305 12.3115V19.699L12.4939 20.2412C12.4939 20.2412 12.4466 20.3906 12.5806 20.3906H14.9339C15.0704 20.3906 15.0205 20.2412 15.0205 20.2412L14.884 19.699V16.592H16.6279L17.0403 16.6942C17.0403 16.6942 17.1506 16.7309 17.1506 16.6287V14.8762C17.1506 14.774 17.0403 14.8133 17.0403 14.8133L16.6279 14.9102H14.884V13.231H16.9405L17.4841 13.3646C17.4841 13.3646 17.6338 13.4144 17.6338 13.2782V11.6094H14.9444H14.9523Z" fill="#141414"/>
<path d="M44.3472 19.7016V12.3141L44.4943 11.7588C44.5074 11.6121 44.4076 11.6121 44.4076 11.6121H42.0281C42.0281 11.6121 41.9283 11.6121 41.9467 11.7588L42.0885 12.3141V16.9719L38.619 11.6094H36.1134C36.1134 11.6094 36.0136 11.6094 36.0267 11.7561L36.1712 12.3115V19.699L36.0372 20.2412C36.0372 20.2412 35.9847 20.3906 36.1239 20.3906H38.4745C38.6137 20.3906 38.5638 20.2412 38.5638 20.2412L38.4299 19.699V14.9417L41.9388 20.3932H44.3945C44.5337 20.3932 44.4812 20.2439 44.4812 20.2439L44.3472 19.699V19.7016Z" fill="#141414"/>
<path d="M59.4072 20.2439L59.1997 19.699L56.5076 12.3115L56.4577 11.7561C56.4682 11.6094 56.371 11.6094 56.371 11.6094H53.5844C53.5844 11.6094 53.4872 11.6094 53.4977 11.7561L53.39 12.3115L50.7951 19.699L50.5824 20.2439C50.5824 20.2439 50.5299 20.3906 50.6691 20.3906H52.8726C53.0118 20.3906 52.9593 20.2439 52.9593 20.2439L52.954 19.699L53.4189 18.3813H56.463L56.941 19.699L56.8779 20.2439C56.8779 20.2439 56.8254 20.3906 56.9646 20.3906H59.3205C59.4545 20.3906 59.4072 20.2439 59.4072 20.2439ZM53.9784 16.7754L54.9107 14.1217L55.8799 16.7754H53.9784Z" fill="#141414"/>
<path d="M69.5084 11.6094H65.1118V13.4642C65.1118 13.5978 65.2641 13.5506 65.2641 13.5506L65.8078 13.417H67.1919V19.7016L67.0553 20.2439C67.0553 20.2439 67.0081 20.3932 67.142 20.3932H69.4953C69.6319 20.3932 69.5846 20.2439 69.5846 20.2439L69.448 19.7016V13.4144H70.8164L71.3732 13.5611C71.5255 13.5742 71.5255 13.4746 71.5255 13.4746V11.6094H69.5084Z" fill="#141414"/>
<path d="M110.05 11.6094H105.656V13.4642C105.656 13.5978 105.803 13.5506 105.803 13.5506L106.352 13.417H107.733V19.7016L107.599 20.2439C107.599 20.2439 107.547 20.3932 107.686 20.3932H110.037C110.176 20.3932 110.126 20.2439 110.126 20.2439L109.99 19.7016V13.4144H111.366L111.92 13.5611C112.072 13.5742 112.072 13.4746 112.072 13.4746V11.6094H110.053H110.05Z" fill="#141414"/>
<path d="M81.0936 11.6094H78.714C78.714 11.6094 78.6169 11.6094 78.6274 11.7561L78.7771 12.3115V19.699L78.6405 20.2412C78.6405 20.2412 78.5932 20.3906 78.7272 20.3906H84.2217L84.3083 18.3839C84.3083 18.2477 84.1613 18.2974 84.1613 18.2974L83.6123 18.4311H81.0358V16.7571H83.1763L83.5834 16.8566C83.5834 16.8566 83.6964 16.8933 83.6964 16.7911V15.0307C83.6964 14.9286 83.5834 14.9652 83.5834 14.9652L83.1763 15.0674H81.0358V13.2389H83.6123L84.1613 13.3699C84.1613 13.3699 84.3083 13.4222 84.3083 13.2834V11.6016H81.0936V11.6094Z" fill="#141414"/>
<path d="M121.144 27.9352H3.41173V4.0648H121.144V27.9326V27.9352ZM124.556 0.661854H0V31.3381H124.558V0.661854H124.556Z" fill="#141414"/>
<path d="M191.372 21.1791V11.7998H195.418C196.008 11.7998 196.53 11.9338 196.986 12.2017C197.45 12.4697 197.817 12.836 198.085 13.3005C198.362 13.765 198.5 14.2875 198.5 14.8681C198.5 15.4756 198.362 16.0205 198.085 16.5028C197.817 16.9763 197.45 17.3514 196.986 17.6283C196.53 17.9053 196.008 18.0437 195.418 18.0437H193.65V21.1791H191.372ZM193.609 16.0473H195.097C195.293 16.0473 195.472 15.9981 195.633 15.8999C195.793 15.8016 195.923 15.6676 196.021 15.4979C196.119 15.3282 196.169 15.1317 196.169 14.9083C196.169 14.6761 196.119 14.4796 196.021 14.3188C195.923 14.158 195.793 14.0329 195.633 13.9436C195.472 13.8543 195.293 13.8096 195.097 13.8096H193.609V16.0473Z" fill="#141414"/>
<path d="M182.399 21.2595C181.622 21.2595 180.93 21.1031 180.322 20.7905C179.715 20.4689 179.237 20.0312 178.889 19.4774C178.549 18.9236 178.379 18.2894 178.379 17.5747V11.7998H180.684V17.4542C180.684 17.7936 180.76 18.1018 180.912 18.3787C181.064 18.6467 181.269 18.861 181.528 19.0218C181.787 19.1737 182.078 19.2496 182.399 19.2496C182.739 19.2496 183.038 19.1737 183.297 19.0218C183.565 18.861 183.779 18.6467 183.94 18.3787C184.101 18.1018 184.181 17.7936 184.181 17.4542V11.7998H186.405V17.5747C186.405 18.2894 186.231 18.9236 185.883 19.4774C185.543 20.0312 185.07 20.4689 184.463 20.7905C183.855 21.1031 183.167 21.2595 182.399 21.2595Z" fill="#141414"/>
<path d="M169.167 21.3131C168.453 21.3131 167.801 21.1925 167.211 20.9513C166.621 20.7101 166.108 20.3707 165.67 19.933C165.232 19.4953 164.893 18.9817 164.652 18.3921C164.411 17.8025 164.29 17.1549 164.29 16.4492C164.29 15.7436 164.411 15.0959 164.652 14.5064C164.893 13.9168 165.232 13.4032 165.67 12.9655C166.108 12.5278 166.621 12.1884 167.211 11.9472C167.801 11.706 168.448 11.5854 169.154 11.5854C169.86 11.5854 170.507 11.706 171.097 11.9472C171.686 12.1884 172.2 12.5278 172.638 12.9655C173.075 13.4032 173.41 13.9168 173.643 14.5064C173.884 15.0959 174.004 15.7436 174.004 16.4492C174.004 17.146 173.884 17.7936 173.643 18.3921C173.41 18.9817 173.075 19.4953 172.638 19.933C172.2 20.3707 171.686 20.7101 171.097 20.9513C170.507 21.1925 169.864 21.3131 169.167 21.3131ZM169.154 19.1692C169.52 19.1692 169.855 19.1022 170.159 18.9683C170.471 18.8343 170.739 18.6467 170.963 18.4055C171.195 18.1554 171.374 17.8651 171.499 17.5346C171.624 17.2041 171.686 16.8423 171.686 16.4492C171.686 16.0562 171.624 15.6944 171.499 15.3639C171.374 15.0334 171.195 14.7476 170.963 14.5064C170.739 14.2563 170.471 14.0642 170.159 13.9302C169.855 13.7962 169.52 13.7292 169.154 13.7292C168.788 13.7292 168.448 13.7962 168.136 13.9302C167.832 14.0642 167.564 14.2563 167.332 14.5064C167.099 14.7476 166.921 15.0334 166.796 15.3639C166.68 15.6944 166.621 16.0562 166.621 16.4492C166.621 16.8423 166.68 17.2085 166.796 17.548C166.921 17.8785 167.099 18.1643 167.332 18.4055C167.564 18.6467 167.832 18.8343 168.136 18.9683C168.448 19.1022 168.788 19.1692 169.154 19.1692Z" fill="#141414"/>
<path d="M152.936 21.1791V11.7998H157.157C157.755 11.7998 158.296 11.9293 158.778 12.1883C159.269 12.4474 159.653 12.8047 159.93 13.2603C160.207 13.7069 160.346 14.2161 160.346 14.7877C160.346 15.3773 160.207 15.9088 159.93 16.3822C159.653 16.8467 159.274 17.213 158.791 17.4809C158.309 17.7489 157.764 17.8829 157.157 17.8829H155.107V21.1791H152.936ZM158.135 21.1791L155.75 16.945L158.081 16.61L160.734 21.1791H158.135ZM155.107 16.141H156.956C157.188 16.141 157.389 16.0919 157.559 15.9937C157.737 15.8865 157.871 15.7391 157.961 15.5515C158.059 15.3639 158.108 15.1495 158.108 14.9083C158.108 14.6672 158.054 14.4572 157.947 14.2786C157.84 14.091 157.684 13.9481 157.478 13.8498C157.282 13.7516 157.041 13.7024 156.755 13.7024H155.107V16.141Z" fill="#141414"/>
<path d="M144.13 21.3131C143.379 21.3131 142.701 21.1925 142.093 20.9513C141.486 20.7101 140.963 20.3707 140.525 19.933C140.088 19.4953 139.753 18.9816 139.52 18.3921C139.288 17.7936 139.172 17.146 139.172 16.4492C139.172 15.7525 139.293 15.1138 139.534 14.5332C139.784 13.9436 140.137 13.43 140.592 12.9923C141.048 12.5546 141.584 12.2151 142.2 11.974C142.826 11.7328 143.504 11.6122 144.237 11.6122C144.755 11.6122 145.242 11.6792 145.697 11.8132C146.162 11.9472 146.582 12.1303 146.957 12.3625C147.332 12.5948 147.649 12.8628 147.908 13.1665L146.528 14.627C146.305 14.4126 146.073 14.2339 145.831 14.091C145.599 13.9481 145.349 13.8364 145.081 13.756C144.813 13.6667 144.527 13.622 144.224 13.622C143.831 13.622 143.469 13.6935 143.138 13.8364C142.817 13.9793 142.531 14.1803 142.281 14.4394C142.04 14.6895 141.852 14.9887 141.718 15.3371C141.584 15.6766 141.517 16.0473 141.517 16.4492C141.517 16.8512 141.588 17.2264 141.731 17.5747C141.874 17.9231 142.071 18.2268 142.321 18.4859C142.571 18.736 142.866 18.937 143.205 19.0888C143.554 19.2318 143.924 19.3032 144.317 19.3032C144.594 19.3032 144.853 19.2586 145.094 19.1692C145.345 19.0799 145.559 18.9593 145.738 18.8075C145.916 18.6556 146.059 18.4769 146.166 18.2715C146.274 18.0571 146.327 17.8293 146.327 17.5881V17.2398L146.622 17.6953H144.036V15.9133H148.444C148.462 16.0115 148.475 16.1455 148.484 16.3152C148.493 16.485 148.498 16.6502 148.498 16.811C148.507 16.9718 148.511 17.0924 148.511 17.1728C148.511 17.7802 148.4 18.3385 148.176 18.8477C147.962 19.3479 147.658 19.7811 147.265 20.1474C146.872 20.5136 146.408 20.7994 145.872 21.0049C145.336 21.2103 144.755 21.3131 144.13 21.3131Z" fill="#141414"/>
</svg>
