<svg xmlns="http://www.w3.org/2000/svg" width="120" height="46.348" viewBox="0 0 120 46.348"><path d="M106.798 24.938a4.74 4.74 0 0 0 4.9 3.636c4.247 0 7.335-4.11 8.3-7.479l-1.25-.265c-.919 3.257-3.653 5.782-6.19 5.782s-2.973-1.659-2.973-2.7c3.463-.691 6.3-1.811 6.3-4.6 0-1.267-.867-2.532-3.169-2.532-3.124 0-5.37 2.789-5.939 5.456-1.189 2.832-3.828 5.082-6.215 5.082-2.879 0-3.182-2-3.182-2.887 3.017-.545 6.754-1.777 6.754-4.825 0-1.628-1.1-2.824-3.4-2.824-3.6 0-5.911 3.276-6.422 6.161-1.325 2.973-4.078 5.2-6.649 5.2-2.969 0-3.461-1.927-3.461-3.166 2.88-.547 7.28-1.756 7.28-5.165 0-1.563-.973-3.031-3.634-3.031-4.242 0-6.719 4.211-6.964 7.135a11.122 11.122 0 0 1-1.631.139c-2 0-1.759-1.528-1.445-3.143.452-2.323-.8-4.131-3.227-4.131-2.779 0-4.831 2.747-5.973 5.464.646-3.322.088-5.359-3.909-5.359a17.556 17.556 0 0 0-6.16 1.456s.813-4.194.813-4.194c1.007-5.179 2.365-6.27 4.058-6.27 1.341 0 2.232.8 3.317 2.2l.582-3.012a7.614 7.614 0 0 0-3.974-1.091c-4 0-6.657 2.905-7.766 8.608l-1.045 5.388a44.946 44.946 0 0 1-15.547 3.276l-.338 1.734a46.61 46.61 0 0 0 15.5-3.02l-1.99 10.231c-.974 5.011-2.286 6.275-4.038 6.275-1.631 0-2.61-1.3-3.317-2.2l-.583 3.012a7.739 7.739 0 0 0 4.059 1.091c3.679 0 6.508-2.671 7.662-8.608l2.217-11.414a19.768 19.768 0 0 1 5.73-1.657c1.881 0 2.226.638 1.738 3.186l-1.88 9.637 3.563-.242.953-4.9c.541-2.783 2.456-6.785 4.919-6.785 1.24 0 1.51.946 1.278 2.138-.6 3.1 1.234 3.888 3.4 3.888a20.512 20.512 0 0 0 3.048-.186 5.415 5.415 0 0 0 5.771 4.931c3.2 0 5.929-2.1 7.738-4.765a5.039 5.039 0 0 0 5.234 3.832c2.936.005 5.478-2.04 7.157-4.487Zm5.794-6.666c.54 0 1.019.379 1.019 1.2 0 1.771-2.221 2.626-3.955 3.013-.001-1.347 1.457-4.213 2.936-4.213Zm-11.993.117c.579 0 1.089.387 1.089 1.3 0 1.848-2.375 2.79-4.232 3.206.001-1.451 1.612-4.506 3.143-4.506Zm-12.9.066c.585 0 1.2.382 1.2 1.452 0 2-2.606 3.03-4.627 3.478.007-1.697 1.788-4.929 3.43-4.929ZM28.017 21.276a54.792 54.792 0 0 1-10.978-1.1A29.832 29.832 0 0 0 33.15 0L10.665 17.3c-1.257.968-1.587.637-2.782.637a7.2 7.2 0 0 0-4.983 2 2.114 2.114 0 0 1-1.329.8L0 21.129l2.991.656c2.385.524 2.928.913 4.241 2.617l16.9 21.946a24.837 24.837 0 0 0-5.927-18.021 16.135 16.135 0 0 0 5.23-.91 7.83 7.83 0 0 1 3.451-.576h8.96c.121-.6-.106-.779-.99-.9l-6.931-.964c.307-.219.729-.6 1.047-.859a3.531 3.531 0 0 1 1.9-.979 50.594 50.594 0 0 0 5.41-1.616c.755-.264.636-.542.793-1.008a51.529 51.529 0 0 1-9.058.761Z" fill="#2864f0"/><path d="M7.183 21.708a1.114 1.114 0 1 1 1.115-1.115 1.115 1.115 0 0 1-1.115 1.115ZM18.052 26.965A14.81 14.81 0 0 1 7.893 22.95c2.385-.731 5.45-.826 9.473-.4a97.142 97.142 0 0 0 10.16 1 14.8 14.8 0 0 1-9.474 3.415Z" fill="#fff"/></svg>