<svg id="uuid-874ead6e-1f1a-40aa-a702-b76286acb3a4" data-name="path" xmlns="http://www.w3.org/2000/svg" viewBox="0 0 157 36"><rect x="38" y="11" width="107" height="14"/><path d="M18.36,26.01h-5.21l-2.66-2.66V12.71l2.66-2.66h5.32l2.66,2.66v1.33h-2.66v-.24l-1.09-1.09h-3.14l-1.09,1.09v8.46l1.09,1.09h3.14l1.09-1.09v-1.16h-1.78v-2.66h4.44v4.91l-2.77,2.66Z"/><path d="M30.31,26.01l-.67-2.66h-3.78l-.67,2.66h-2.74l3.86-15.96h2.87l3.86,15.96h-2.74Zm-2.55-10.24l-1.22,4.92h2.45l-1.22-4.92Z"/><path d="M146.48,25.97H37.01V10h109.47v15.97ZM46.82,12.59h-7.18v1.8h2.69v8.98h1.8V14.39h2.69v-1.8Zm17.92,8.08h-1.8v.16s-.72,.74-.72,.74h-2.13l-.74-.74v-5.7l.74-.74h2.1l.74,.74v.16h1.8v-.9l-1.8-1.8h-3.59l-1.8,1.8v7.18l1.8,1.8h3.52l1.87-1.8v-.9Zm8.96-8.08h-1.8v5.07h-3.59v-5.07h-1.8v10.78h1.8v-3.91h3.59v3.91h1.8V12.59Zm9.86,0h-1.8v6.9l-3.61-6.89-1.78-.02v10.78h1.8v-6.86l3.59,6.86h1.8V12.59Zm9.32,1.8l-1.8-1.8h-3.59l-1.8,1.8v7.18l1.8,1.8h3.52l1.87-1.8v-7.18Zm-2.51,7.18h-2.13l-.74-.74v-5.7l.74-.74h2.1l.74,.74v5.7l-.72,.74Zm11.84,0h-5.39V12.59h-1.8v10.78h7.18v-1.8Zm8.6-7.18l-1.8-1.8h-3.59l-1.8,1.8v7.18l1.8,1.8h3.52l1.87-1.8v-7.18Zm-2.51,7.18h-2.13l-.74-.74v-5.7l.74-.74h2.1l.74,.74v5.7l-.72,.74Zm11.84-3.59h-2.69v1.8h.9v1.06l-.72,.74h-2.13l-.74-.74v-5.7l.74-.74h2.1l.74,.74v.16h1.8v-.9l-1.8-1.8h-3.59l-1.8,1.8v7.18l1.8,1.8h3.52l1.87-1.8v-3.59Zm4.47-5.39h-1.8v10.78h1.8V12.59Zm18.82,6.29l-1.8-1.8h-2.85l-.74-.74v-1.21l.74-.74h2.1l.74,.74v.16h1.8v-.9l-1.8-1.8h-3.59l-1.8,1.8v2.69l1.8,1.8h2.85l.74,.74v1.21l-.74,.74h-2.1l-.74-.74v-.16h-1.8v.9l1.8,1.8h3.59l1.8-1.8v-2.69Zm-87.65,2.69h-5.39v-2.11h3.59v-1.8h-3.59v-3.28h5.39v-1.8h-7.18v10.78h7.18v-1.8Zm78.68,0h-5.39v-2.11h3.59v-1.8h-3.59v-3.28h5.39v-1.8h-7.18v10.78h7.18v-1.8Z" style="fill:#00c8ff"/></svg>