<?xml version="1.0" encoding="utf-8"?>
<!-- Generator: Adobe Illustrator 28.3.0, SVG Export Plug-In . SVG Version: 6.00 Build 0)  -->
<svg version="1.1" id="レイヤー_1" xmlns="http://www.w3.org/2000/svg" xmlns:xlink="http://www.w3.org/1999/xlink" x="0px"
	 y="0px" viewBox="0 0 378.8 144.8" style="enable-background:new 0 0 378.8 144.8;" xml:space="preserve">
<style type="text/css">
	.st0{fill:#F04600;}
	.st1{fill:none;}
</style>
<g>
	<g>
		<g>
			<path d="M175.2,101l-19.9-22.1l17.8-21.6h-13.5l-16.9,20.2c-0.7,0.8-0.7,2,0,2.8l17.9,20.7H175.2z"/>
			<path d="M335.1,49.1V101l0,0c6.4,0,11.5-5.2,11.5-11.5V38.1C340.2,38,335.1,42.7,335.1,49.1z"/>
			<path d="M317.8,49.1V101l0,0c6.4,0,11.5-5.2,11.5-11.5V38.1C322.9,38,317.8,42.7,317.8,49.1z"/>
			<path d="M129.8,101h7.8c2,0,3.7-1.7,3.7-3.7V38h-0.6c-6,0-10.9,4.9-10.9,10.9V101z"/>
			<path d="M311.7,70.2c-3-9.3-12.1-13.8-20.1-13.8c-8.9,0-16.8,3.3-20.8,12.6c-1.2,2.8-1.8,6.7-1.8,10.1s0.6,6.5,1.8,9.3
				c1.2,2.8,2.9,5.2,5,7.2s4.6,3.5,7.5,4.6s5.9,1.6,9.2,1.6c3.4,0,7-0.6,10.1-2.1c3-1.5,6-3.7,8.5-6.8l-5.9-4.4
				c-0.9-0.6-2.4-1-3.6,0c-1,0.8-2.1,1.8-4.7,3.3c-1.4,0.8-3.1,1-5.1,1c-3.1,0-5.7-0.9-7.8-2.7c-2.1-1.8-3.5-3.7-3.8-7.6
				c0-0.2,0.1-0.3,0.3-0.3h27.9h4.3c0,0,0.3-0.6,0.4-2.3c0-0.4,0-2,0-2.3C312.8,74.9,312.4,72.5,311.7,70.2z M280.4,74.8
				c-0.2,0-0.3-0.2-0.3-0.3c0.5-2.8,1.6-5.1,3.4-6.8c1.9-1.8,4.5-2.7,7.7-2.7c3.4,0,5.8,0.9,7.8,2.6c1.9,1.7,3,4,3.1,6.9
				c0,0.2-0.1,0.3-0.3,0.3H280.4z"/>
			<path d="M216.9,57.3h-11.4v27.4c0,4.8-3.7,8.2-8.4,8.5c-5.1,0.2-9.3-3.8-9.3-8.9v-27h-11.5V83c0,10.4,8,18.8,17.8,18.8
				c2.1,0,7.4-0.2,11.5-4.6l0,0c0,2,1.7,3.7,3.7,3.7h7.8L216.9,57.3L216.9,57.3z"/>
			<path d="M262.8,67.2c-1.7-3.4-4.2-6.1-7.3-8c-3.1-1.9-6.6-2.8-10.5-2.8c-4.3,0-7.3,1.2-10.7,3.6V37.9c-6.4,0-11.5,5.2-11.5,11.5
				v6.2v38.6v3.9v2.9c0,0,4.7-1.3,9.7-0.5c0.1,0,0.6,0.1,0.8,0.1c2.8,0.5,5.3,1,8.4,1c7.4,0,13.1-2,17.4-6.1s6.4-9.8,6.4-17
				C265.4,74.5,264.5,70.7,262.8,67.2z M251.3,89.3c-2.1,2.6-4.9,3.9-8.4,3.9c-3.2,0-6-0.4-8.4-1.2c-0.1,0-0.2-0.2-0.2-0.3V68.9
				c0-0.1,0-0.2,0.1-0.2c1.5-1.2,2.9-2.1,4.2-2.7s2.8-0.9,4.4-0.9c3.4,0,6.2,1.2,8.3,3.7c2.1,2.4,3.1,5.7,3.1,9.8
				C254.4,83.1,253.4,86.7,251.3,89.3z"/>
		</g>
		<g>
			<g>
				<path class="st0" d="M32.1,83.9L32.1,83.9V72.4c0-6.3,5.1-11.5,11.5-11.5l0,0v11.5C43.6,78.7,38.4,83.9,32.1,83.9z"/>
				<path class="st0" d="M101.1,83.9L101.1,83.9V72.4c0-6.3,5.1-11.5,11.5-11.5l0,0v11.5C112.6,78.7,107.5,83.9,101.1,83.9z"/>
				<path class="st0" d="M49.3,101.1L49.3,101.1v-46c0-6.3,5.1-11.5,11.5-11.5l0,0v46C60.8,96,55.7,101.1,49.3,101.1z"/>
				<path class="st0" d="M83.9,101.1L83.9,101.1v-46c0-6.3,5.1-11.5,11.5-11.5l0,0v46C95.4,96,90.2,101.1,83.9,101.1z"/>
				<path class="st0" d="M66.6,112.6L66.6,112.6v-69c0-6.3,5.1-11.5,11.5-11.5l0,0v69C78.1,107.5,73,112.6,66.6,112.6z"/>
			</g>
		</g>
	</g>
	<g>
		<rect y="0" class="st1" width="378.8" height="144.8"/>
	</g>
</g>
</svg>
