<svg width="300" height="89" viewBox="0 0 300 89" fill="none" xmlns="http://www.w3.org/2000/svg">
<path d="M78.51 29.4719C78.45 28.8319 77.92 28.5619 77.25 28.8319C77.21 28.8519 77.03 28.9319 76.86 29.0219L50.55 41.8519C50.03 42.1119 49.5 42.3619 48.98 42.5719C48.21 42.8819 47.46 43.1519 46.76 43.2419C43.5 43.6719 41.09 41.7919 40.78 38.3719C40.73 37.8719 40.73 37.3419 40.73 36.8219V1.20189C40.73 1.00189 40.73 0.791889 40.73 0.751889C40.67 0.111889 40.14 -0.158111 39.47 0.111889C39.43 0.131889 39.25 0.211889 39.08 0.301889C39.08 0.301889 0.97 18.8719 0.95 18.8819C0.9 18.9019 0.85 18.9319 0.8 18.9619C0.38 19.2019 0.03 19.5419 0 20.1419C0 20.1819 0 20.3019 0 20.3719V82.4919C0 83.0119 0 83.5419 0.05 84.0419C0.36 87.4619 2.77 89.3419 6.03 88.9119C6.74 88.8219 7.48 88.5519 8.25 88.2419C8.77 88.0319 9.3 87.7719 9.82 87.5219L30.66 77.3619C31.2 77.1019 31.74 76.8419 32.27 76.6219C33.3 76.2119 34.29 75.9119 35.2 75.8919C38.08 75.8419 40.37 77.6519 40.67 80.9219C40.71 81.3519 40.71 81.7919 40.72 82.2419V82.4319V82.4419C40.72 82.9419 40.72 83.4419 40.77 83.9219C41.09 87.4519 43.59 89.3919 46.96 88.9119C47.66 88.8119 48.4 88.5319 49.17 88.2219C49.71 88.0119 50.24 87.7419 50.78 87.4819C50.78 87.4819 77.54 74.4319 77.55 74.4219C77.6 74.4019 77.65 74.3719 77.7 74.3419C78.12 74.1019 78.45 73.6619 78.49 73.1619C78.49 73.0219 78.49 72.8519 78.49 72.8519V29.9219C78.49 29.7219 78.49 29.5119 78.49 29.4719H78.51Z" fill="#00AFA8"/>
<path d="M134.93 60.7487H126.48C126.03 60.7487 125.58 60.7487 125.13 60.7087C121.39 60.3787 118.4 57.3888 118.07 53.6488C118.03 53.1988 118.03 52.7487 118.03 52.2987V28.7188H104.68V53.1887C104.68 54.2587 104.68 55.3288 104.77 56.3988C105.54 65.2588 112.63 72.3488 121.49 73.1188C122.56 73.2088 123.63 73.2087 124.7 73.2087H134.93V60.7487Z" fill="black"/>
<path d="M177.86 28.7188V52.2987C177.86 52.7487 177.86 53.1988 177.82 53.6488C177.49 57.3888 174.5 60.3787 170.76 60.7087C170.31 60.7487 169.86 60.7487 169.41 60.7487C168.96 60.7487 168.51 60.7487 168.06 60.7087C164.32 60.3787 161.33 57.3888 161 53.6488C160.96 53.1988 160.96 52.7487 160.96 52.2987V28.7188H147.61V53.1887C147.61 54.2587 147.61 55.3288 147.7 56.3988C148.47 65.2588 155.56 72.3488 164.42 73.1188C165.49 73.2088 166.56 73.2087 167.63 73.2087H171.19C172.26 73.2087 173.33 73.2088 174.4 73.1188C183.26 72.3488 190.35 65.2588 191.12 56.3988C191.21 55.3288 191.21 54.2587 191.21 53.1887V28.7188H177.86Z" fill="black"/>
<path d="M234.82 28.7188V52.2987C234.82 52.7487 234.82 53.1988 234.78 53.6488C234.45 57.3888 231.46 60.3787 227.72 60.7087C227.27 60.7487 226.82 60.7487 226.37 60.7487C225.92 60.7487 225.47 60.7487 225.02 60.7087C221.28 60.3787 218.29 57.3888 217.96 53.6488C217.92 53.1988 217.92 52.7487 217.92 52.2987V28.7188H204.57V53.1887C204.57 54.2587 204.57 55.3288 204.66 56.3988C205.43 65.2588 212.52 72.3488 221.38 73.1188C222.45 73.2088 223.52 73.2087 224.59 73.2087H228.15C229.22 73.2087 230.29 73.2088 231.36 73.1188C240.22 72.3488 247.31 65.2588 248.08 56.3988C248.17 55.3288 248.17 54.2587 248.17 53.1887V28.7188H234.82Z" fill="black"/>
<path d="M299.56 44.9587C299.56 45.8287 299.56 46.6988 299.48 47.5588C298.85 54.7388 293.1 60.4888 285.92 61.1188C285.05 61.1988 284.18 61.1988 283.32 61.1988H274.64V73.2087H261.29V28.7188H283.31C284.18 28.7188 285.05 28.7187 285.91 28.7987C293.09 29.4287 298.84 35.1788 299.47 42.3588C299.55 43.2288 299.55 44.0987 299.55 44.9587H299.56ZM287.54 44.9587C287.54 44.6387 287.54 44.3188 287.51 43.9988C287.28 41.3388 285.15 39.2188 282.49 38.9788C282.17 38.9488 281.85 38.9488 281.53 38.9488H274.63V50.9587H281.53C281.85 50.9587 282.17 50.9588 282.49 50.9288C285.15 50.6988 287.27 48.5688 287.51 45.9088C287.54 45.5888 287.54 45.2688 287.54 44.9488V44.9587Z" fill="black"/>
</svg>
