<svg width="66" height="32" viewBox="0 0 66 32" fill="none" xmlns="http://www.w3.org/2000/svg">
<g clip-path="url(#clip0_5507_26722)">
<path d="M65.356 2.34375e-05H59.858C59.6872 2.34375e-05 59.5234 0.0678732 59.4026 0.188647C59.2818 0.30942 59.214 0.473224 59.214 0.644023V19.337C59.214 19.5078 59.2818 19.6716 59.4026 19.7924C59.5234 19.9132 59.6872 19.981 59.858 19.981H65.356C65.5268 19.981 65.6906 19.9132 65.8114 19.7924C65.9322 19.6716 66 19.5078 66 19.337V0.644023C66 0.473224 65.9322 0.30942 65.8114 0.188647C65.6906 0.0678732 65.5268 2.34375e-05 65.356 2.34375e-05ZM32.025 2.34375e-05H26.526C26.3552 2.34375e-05 26.1914 0.0678732 26.0706 0.188647C25.9498 0.30942 25.882 0.473224 25.882 0.644023V19.337C25.882 19.5078 25.9498 19.6716 26.0706 19.7924C26.1914 19.9132 26.3552 19.981 26.526 19.981H32.025C32.1956 19.9808 32.3592 19.9128 32.4797 19.792C32.6003 19.6713 32.668 19.5076 32.668 19.337V0.644023C32.668 0.473397 32.6003 0.309745 32.4797 0.189C32.3592 0.0682551 32.1956 0.000288385 32.025 2.34375e-05V2.34375e-05ZM55.765 2.34375e-05H50.012C49.8087 -4.71294e-05 49.6083 0.0480347 49.4272 0.140331C49.2461 0.232628 49.0894 0.366513 48.97 0.531023L45.946 4.70402L42.92 0.530023C42.8005 0.365698 42.6438 0.232005 42.4627 0.139886C42.2815 0.0477663 42.0812 -0.000161758 41.878 2.34375e-05H36.114C35.9952 7.67013e-05 35.8789 0.033328 35.778 0.0960234C35.6749 0.156223 35.591 0.244493 35.5361 0.350545C35.4812 0.456598 35.4576 0.576065 35.468 0.695023C35.478 0.813023 35.52 0.926023 35.589 1.02202L42.097 9.99102L35.589 18.96C35.5188 19.0558 35.4766 19.1691 35.467 19.2874C35.4575 19.4058 35.481 19.5244 35.5349 19.6302C35.5888 19.7359 35.671 19.8246 35.7724 19.8864C35.8738 19.9482 35.9903 19.9806 36.109 19.98H41.862C42.0653 19.9802 42.2658 19.9323 42.4471 19.8402C42.6284 19.7481 42.7853 19.6144 42.905 19.45L45.93 15.277L48.955 19.45C49.0744 19.6142 49.231 19.7478 49.4119 19.8399C49.5928 19.932 49.793 19.98 49.996 19.98H55.756C55.8743 19.9795 55.9901 19.9464 56.0908 19.8844C56.1915 19.8224 56.2732 19.7339 56.3269 19.6285C56.3806 19.5232 56.4043 19.405 56.3953 19.2871C56.3863 19.1692 56.345 19.056 56.276 18.96L49.779 9.99002L56.287 1.02102C56.3751 0.900842 56.4186 0.753662 56.4098 0.604876C56.4011 0.45609 56.3406 0.315027 56.239 0.206023C56.1787 0.140803 56.1055 0.088751 56.0241 0.0531305C55.9427 0.0175099 55.8548 -0.000910757 55.766 -0.000976562L55.765 2.34375e-05ZM14.216 0.498023L10.616 5.13802L7.01 0.497023C6.88896 0.342082 6.73418 0.216786 6.55743 0.130664C6.38068 0.0445414 6.18661 -0.000138123 5.99 2.34375e-05H0.645C0.474108 2.32322e-05 0.310202 0.0678411 0.189269 0.188586C0.0683371 0.309331 0.000264948 0.473132 0 0.644023L0 19.337C0.000264948 19.5079 0.0683371 19.6717 0.189269 19.7925C0.310202 19.9132 0.474108 19.981 0.645 19.981H5.982C6.15254 19.9805 6.31594 19.9124 6.43644 19.7918C6.55694 19.6711 6.62474 19.5076 6.625 19.337V9.75302L10.115 14.065C10.2057 14.1777 10.3319 14.2563 10.473 14.2881C10.6141 14.3199 10.7618 14.3029 10.892 14.24C10.9785 14.1991 11.0547 14.1393 11.115 14.065L14.605 9.75302V19.337C14.6055 19.5077 14.6735 19.6712 14.7942 19.7918C14.9149 19.9125 15.0784 19.9805 15.249 19.981H20.749C20.9198 19.9808 21.0836 19.9129 21.2044 19.7922C21.3253 19.6715 21.3935 19.5078 21.394 19.337V0.644023C21.3935 0.473213 21.3253 0.309565 21.2044 0.188877C21.0836 0.0681897 20.9198 0.000287033 20.749 2.34375e-05H15.236C15.0393 5.47299e-05 14.8452 0.0449216 14.6685 0.131214C14.4917 0.217507 14.337 0.342955 14.216 0.498023V0.498023Z" fill="white"/>
<path d="M30.688 30.4604V24.9624C30.688 24.7916 30.6202 24.6278 30.4994 24.507C30.3786 24.3862 30.2148 24.3184 30.044 24.3184H11.351C11.1804 24.3184 11.0168 24.3861 10.896 24.5066C10.7753 24.6272 10.7073 24.7907 10.707 24.9614V30.4614C10.7073 30.632 10.7753 30.7955 10.896 30.9161C11.0168 31.0366 11.1804 31.1044 11.351 31.1044H30.044C30.2148 31.1044 30.3786 31.0365 30.4994 30.9157C30.6202 30.795 30.688 30.6312 30.688 30.4604V30.4604Z" fill="#E5004D"/>
<path d="M55.1275 30.4604V24.9624C55.1275 24.7917 55.0598 24.6281 54.9392 24.5073C54.8186 24.3866 54.6551 24.3186 54.4845 24.3184H35.7905C35.62 24.3186 35.4566 24.3865 35.3361 24.507C35.2156 24.6275 35.1477 24.7909 35.1475 24.9614V30.4614C35.1477 30.6318 35.2156 30.7952 35.3361 30.9157C35.4566 31.0363 35.62 31.1041 35.7905 31.1044H54.4845C54.6551 31.1041 54.8186 31.0361 54.9392 30.9154C55.0598 30.7946 55.1275 30.631 55.1275 30.4604V30.4604Z" fill="#F5A000"/>
</g>
<defs>
<clipPath id="clip0_5507_26722">
<rect width="66" height="32" fill="white"/>
</clipPath>
</defs>
</svg>
