<svg xmlns="http://www.w3.org/2000/svg" viewBox="0 0 160 30.65">
          <g id="header">
            <polygon points="49.66 8.29 57.14 8.29 57.14 30.65 62.69 24.32 62.69 24.22 62.69 8.29 70.2 8.29 70.2 2.8 49.66 2.8 49.66 8.29" />
            <path d="M17.68,5.29A9.91,9.91,0,0,0,11,2.73H0V28.3H5.5V20.86H11a9.9,9.9,0,0,0,6.72-2.58,8.74,8.74,0,0,0,2.84-6.47v0A8.75,8.75,0,0,0,17.68,5.29ZM15,11.79a3,3,0,0,1-1.56,3.06A5.49,5.49,0,0,1,11,15.3H5.51v-7H11a5.42,5.42,0,0,1,2.44.44A3.05,3.05,0,0,1,15,11.79Z" />
            <path d="M157.39,14.41h0c-1.6-1.43-3.64-1.65-6-1.65H148a5.1,5.1,0,0,1-2-.3,1.77,1.77,0,0,1-1.13-1.81A2,2,0,0,1,146,8.6a4.43,4.43,0,0,1,1.9-.31H158V2.73H148a8.77,8.77,0,0,0-6,2,8.22,8.22,0,0,0-2.61,6h0a8.25,8.25,0,0,0,2.52,6c1.58,1.41,3.6,1.63,6.07,1.63h3.48a4.75,4.75,0,0,1,1.82.28,1.74,1.74,0,0,1,1.1,1.79,2,2,0,0,1-1.17,2.1,4.42,4.42,0,0,1-1.86.31H140.49V28.3h10.93a8.75,8.75,0,0,0,6-2,8.2,8.2,0,0,0,2.6-5.9v-.06A8.2,8.2,0,0,0,157.39,14.41Z" />
            <polygon points="73.53 6.65 73.53 28.3 79.36 28.3 79.36 0 73.53 6.54 73.53 6.65" />
            <path d="M37.44,20.25a9.65,9.65,0,0,0,3.29-2,8.74,8.74,0,0,0,2.84-6.47v0a8.75,8.75,0,0,0-2.84-6.49A9.91,9.91,0,0,0,34,2.73H23V28.3h5.5V18l8.92,10.34h6.87l-.39-.44Zm.62-8.46a3,3,0,0,1-1.58,3.06A5.53,5.53,0,0,1,34,15.3H28.54v-7H34a5.42,5.42,0,0,1,2.44.44A3.09,3.09,0,0,1,38.05,11.79Z" />
            <path d="M116,4.68a6,6,0,0,0-2,4.47V21.91a6,6,0,0,0,2,4.47,6.79,6.79,0,0,0,4.81,1.93H137V22.8H120.24a.7.7,0,0,1-.52-.21.9.9,0,0,1-.29-.67v-3.6H134.5l0-5.51H119.41V9.21a.89.89,0,0,1,.29-.68.71.71,0,0,1,.53-.21H137V2.75h-16.2A6.86,6.86,0,0,0,116,4.68Z" />
            <path d="M102.94,2.79H90.19a6,6,0,0,0-4.47,2,6.82,6.82,0,0,0-1.93,4.82V28.29H89.3V9.08a.72.72,0,0,1,.22-.52.88.88,0,0,1,.67-.29h3.6v20l5.51,0v-20h3.59a.89.89,0,0,1,.68.29.73.73,0,0,1,.21.53V28.29h5.56V9.62a6.89,6.89,0,0,0-1.92-4.82A6,6,0,0,0,102.94,2.79Z" />
          </g>
        </svg>
