<svg width="100%" clip-rule="evenodd" fill-rule="evenodd" stroke-linejoin="round" stroke-miterlimit="1.41421" viewBox="0 0 76 28" xmlns="http://www.w3.org/2000/svg" xmlns:xlink="http://www.w3.org/1999/xlink"><title>Sansan</title><clipPath id="a"><path clip-rule="evenodd" d="m0 0h75.25v28h-75.25z"/></clipPath><g clip-path="url(#a)"><path d="m.198 23.65h74.782v4.35h-74.782z" fill="#ca171d"/><g class="is-company_name_color" fill="#004b8f" fill-rule="nonzero"><path d="m25.401 13.129c-.015.002-.03.003-.045.003-.203 0-.371-.165-.371-.366 0-.037.006-.074.018-.11l2.028-11.231c.04-.2.181-.367.374-.443 1.618-.615 3.332-.947 5.066-.982 3.756 0 5.454 2.361 4.832 5.852l-1.246 6.878c-.023.235-.235.411-.473.394h-2.862c-.005 0-.01 0-.015 0-.214 0-.39-.174-.39-.385 0-.028.003-.056.009-.083l1.246-7.178c.298-1.549-.248-2.262-1.569-2.262-.546-.006-1.088.094-1.594.295l-1.644 9.219c-.014.221-.202.396-.426.396-.016 0-.032 0-.048-.002z"/><path d="m63.222 13.129c-.014.002-.028.003-.043.003-.203 0-.37-.165-.37-.366 0-.036.005-.071.015-.105l2.043-11.233c.04-.201.181-.368.373-.443 1.614-.614 3.323-.948 5.052-.985 3.76 0 5.454 2.361 4.83 5.852l-1.246 6.878c-.023.235-.235.411-.474.394h-2.859c-.006 0-.011 0-.017 0-.214 0-.39-.174-.39-.385 0-.028.003-.056.009-.083l1.245-7.178c.299-1.549-.248-2.262-1.569-2.262-.545-.006-1.087.094-1.594.295l-1.644 9.219c-.013.221-.201.396-.425.396-.016 0-.032 0-.048-.002z"/><path d="m46.26 3.274.097.022c.411.085.813.208 1.201.366.279.118.474.074.574-.193l.778-1.975c.075-.217.075-.385-.073-.482-.401-.229-.824-.421-1.262-.572-.248-.088-.51-.168-.78-.239-.732-.16-1.482-.222-2.23-.184-2.675.14-4.52 1.216-5.016 3.521-.557 2.655 1.394 4.105 3.835 4.598.995.22 1.867.418 1.694 1.18-.125.567-.722.935-1.917.935-1.168.009-2.306-.363-3.238-1.056-.072-.06-.163-.093-.256-.093-.14 0-.27.073-.341.192l-1.418 1.926c-.067.071-.104.165-.104.263 0 .131.067.254.179.326 1.368 1.1 2.987 1.65 5.055 1.65 3.113 0 5.328-1.205 5.827-3.81.524-2.878-1.867-4.056-3.784-4.474-1.196-.275-1.993-.492-1.842-1.23.1-.613.671-.811 1.594-.811.433-.001.865.041 1.29.126z"/><path d="m8.447 3.274.097.022c.414.085.819.207 1.21.366.278.118.473.074.574-.193l.777-1.975c.075-.217.075-.385-.072-.482-.407-.23-.836-.422-1.279-.572-.248-.088-.51-.168-.781-.239-.731-.16-1.481-.222-2.229-.184-2.667.14-4.515 1.216-4.997 3.524-.557 2.655 1.394 4.105 3.835 4.597.995.22 1.867.419 1.694 1.181-.125.566-.722.935-1.917.935-1.168.008-2.306-.365-3.238-1.059-.072-.06-.162-.093-.256-.093-.14 0-.27.073-.341.192l-1.418 1.926c-.067.071-.104.165-.104.263 0 .131.067.254.179.326 1.368 1.1 2.988 1.65 5.055 1.65 3.124-.011 5.326-1.216 5.825-3.829.523-2.87-1.865-4.05-3.785-4.469-1.195-.269-1.981-.484-1.842-1.227.1-.613.672-.811 1.594-.811.433-.001.866.041 1.29.126z"/><path d="m19.507 0c-.7 0-1.399.055-2.09.165-.843.136-1.661.394-2.427.768-.156.09-.165.261-.103.487l.652 2.058c.026.161.169.281.335.281.043 0 .085-.007.125-.023.485-.173.987-.294 1.499-.36h.05c.37-.049.742-.074 1.115-.074 1.569 0 1.917.663 1.694 1.868l-.05.393c-.698-.132-1.407-.197-2.118-.195-3.188 0-5.228 1.056-5.652 3.442-.509 2.671 1.257 4.638 4.741 4.638 1.764-.004 3.515-.295 5.183-.861.206-.07.353-.253.373-.468l1.115-6.22c.677-3.698-1.064-5.899-4.442-5.899zm-1.363 10.961c-.938 0-1.711-.762-1.711-1.689s.773-1.689 1.711-1.689c.939 0 1.711.762 1.711 1.689s-.772 1.689-1.711 1.689z"/><path d="m57.32 0c-.7 0-1.399.055-2.09.165-.843.136-1.661.394-2.427.768-.156.09-.165.261-.103.487l.652 2.058c.027.161.169.281.335.281.043 0 .085-.007.125-.023.485-.173.987-.294 1.499-.36h.05c.37-.049.742-.074 1.115-.074 1.569 0 1.917.663 1.694 1.868l-.05.393c-.698-.132-1.407-.197-2.118-.195-3.188 0-5.228 1.056-5.651 3.442-.499 2.679 1.27 4.647 4.757 4.647 1.762-.005 3.513-.296 5.18-.862.206-.07.353-.253.373-.467l1.115-6.221c.675-3.706-1.07-5.907-4.456-5.907zm-1.354 10.961c-.936-.004-1.703-.765-1.703-1.689 0-.927.773-1.689 1.711-1.689.939 0 1.711.762 1.711 1.689 0 .927-.772 1.689-1.711 1.689-.003 0-.005 0-.008 0z"/></g></g></svg>
