<svg xmlns="http://www.w3.org/2000/svg" xmlns:xlink="http://www.w3.org/1999/xlink" width="225" height="53" viewBox="0 0 225 53">
  <defs>
    <clipPath id="clip-path">
      <rect id="Logo_Frame_Clip_Content_Mask_" data-name="Logo [Frame Clip Content Mask]" width="158" height="23" fill="none"/>
    </clipPath>
  </defs>
  <g id="グループ_656" data-name="グループ 656" transform="translate(-75 -13)">
    <g id="Logo_Clip_Content_" data-name="Logo (Clip Content)" transform="translate(109 43)" clip-path="url(#clip-path)">
      <rect id="Logo_Frame_Background_" data-name="Logo [Frame Background]" width="158" height="23" fill="none"/>
      <g id="レイヤー_2" data-name="レイヤー 2">
        <g id="logo">
          <path id="Vector" d="M13.458,16.769c0,4.352-2.92,6.167-6.481,6.167A18.625,18.625,0,0,1,0,21.467l.467-1.608a17.166,17.166,0,0,0,6.45,1.449c2.336,0,4.7-1.017,4.7-4.447,0-2.45-1.955-3.746-5.136-5.187C3.24,10.174.963,9.05.963,5.707.963,1.671,4.145,0,7.357,0a13.247,13.247,0,0,1,5.751,1.38l-.559,1.589A11.588,11.588,0,0,0,7.528,1.615c-2.131,0-4.758.922-4.758,4.034,0,2.335,1.927,3.229,4.7,4.5,3.477,1.613,5.987,3.084,5.987,6.622Z"/>
          <path id="Vector-2" data-name="Vector" d="M24.293,6.054V16.775h-1.78V6.428C22.513,4.007,21.9,1.5,18.6,1.5a8.167,8.167,0,0,0-5.575,2.507,12.18,12.18,0,0,1,.233,2.709V16.775H11.536V6.428c0-2.45-.643-4.928-3.911-4.928a7.638,7.638,0,0,0-5.4,2.593V16.77H.444V3.43A10.857,10.857,0,0,0,0,.376L1.636.115A11.626,11.626,0,0,1,2.16,2.739,8.588,8.588,0,0,1,8.116,0C10.451,0,12,1,12.67,2.76A9.509,9.509,0,0,1,19.062,0c3.62,0,5.226,2.133,5.231,6.054Z" transform="translate(16.676 5.793)"/>
          <path id="Vector-3" data-name="Vector" d="M12.465,12.05A7.476,7.476,0,0,0,13.78,16.8l-1.519.317a6.544,6.544,0,0,1-1.284-3.286,5.981,5.981,0,0,1-5.634,3.487C2.57,17.322,0,15.939,0,12.481,0,8.734,1.868,7.464,10.739,7V5.3c0-2.219-.439-3.8-3.707-3.8A10.415,10.415,0,0,0,1.748,3.031l-.467-1.5A12.336,12.336,0,0,1,7.206,0c4.263,0,5.254,2.026,5.254,5.246ZM10.739,8.416c-7.036.374-9.08,1.066-9.08,3.977s2.54,3.43,3.913,3.43a5.188,5.188,0,0,0,5.167-3.892Z" transform="translate(44.272 5.62)"/>
          <path id="Vector-4" data-name="Vector" d="M7.941,0,7.853,1.61A5.972,5.972,0,0,0,2.219,4.867V16.741H.439V4.809A17.737,17.737,0,0,0,0,.342L1.606.081A10.516,10.516,0,0,1,2.16,3.108,6.519,6.519,0,0,1,7.941,0Z" transform="translate(61.35 5.827)"/>
          <path id="Vector-5" data-name="Vector" d="M4.728,4.468H8.7v1.44H4.728V16.781c0,2.156.643,2.76,2.51,2.76h.906v1.326l-1.284.115c-2.423,0-3.913-.75-3.913-3.8V5.908H0V4.468H2.948V.4L4.728,0Z" transform="translate(71.266 1.7)"/>
          <path id="Vector-6" data-name="Vector" d="M14.655,0h1.751V22.135H14.392L1.751,2.191V22.135H0V0H2.335l12.32,19.282Z" transform="translate(84.032 0.432)"/>
          <path id="Vector-7" data-name="Vector" d="M13.917,7.581V8.6H1.777a8.33,8.33,0,0,0-.028.836c0,3.286,1.517,6.543,6.3,6.543A12.856,12.856,0,0,0,13.308,14.9l.35,1.47A14.573,14.573,0,0,1,7.937,17.5C3.24,17.5,0,14.844,0,9.079,0,3.8,2.744,0,7.5,0c4.059,0,6.423,2.45,6.415,7.581Zm-1.656-.347C12.174,3.344,10.6,1.441,7.27,1.441c-3.007,0-5.022,2.392-5.43,5.793Z" transform="translate(104.128 5.505)"/>
          <path id="Vector-8" data-name="Vector" d="M23.177,0h1.956L19.47,16.486H17.719L12.582,2.364,7.415,16.486H5.662L0,0H1.955l4.7,14.268L11.705.23h1.723l5.138,14.038Z" transform="translate(120.208 6.081)"/>
          <path id="Vector-9" data-name="Vector" d="M10.8,12.546C10.8,16.2,8.144,17.3,5.575,17.3A16.578,16.578,0,0,1,0,16.261l.467-1.533A12.7,12.7,0,0,0,5.4,15.766c1.868,0,3.62-.662,3.62-3.142,0-1.815-1.432-2.68-4.176-3.775C2.394,7.84.7,6.975.7,4.324.7.951,3.62,0,5.867,0a11.759,11.759,0,0,1,4.619.955l-.467,1.47a9.245,9.245,0,0,0-4.145-.98c-1.264,0-3.424.547-3.424,2.824,0,1.671,1.08,2.334,3.591,3.343,2.716,1.1,4.759,2.22,4.759,4.933Z" transform="translate(147.199 5.673)"/>
        </g>
      </g>
    </g>
    <g id="SNcolor" transform="translate(75 13)">
      <rect id="SNcolor_Frame_Background_" data-name="SNcolor [Frame Background]" width="225" height="10" fill="none"/>
      <path id="Rectangle_4" data-name="Rectangle 4" d="M0,0H56V10H0Z" fill="#fd4749"/>
      <path id="Rectangle_5" data-name="Rectangle 5" d="M0,0H57V10H0Z" transform="translate(56)" fill="#fb9200"/>
      <rect id="Rectangle_6" data-name="Rectangle 6" width="56" height="10" transform="translate(113)" fill="#00cc8b"/>
      <rect id="Rectangle_7" data-name="Rectangle 7" width="56" height="10" transform="translate(169)" fill="#329fe7"/>
    </g>
  </g>
</svg>
