<svg fill="none" height="40" viewBox="0 0 281 40" width="281" xmlns="http://www.w3.org/2000/svg" xmlns:xlink="http://www.w3.org/1999/xlink"><clipPath id="a"><path d="m0 0h280.87v40h-280.87z"/></clipPath><g clip-path="url(#a)" fill="#000"><path d="m20.6041 34.8031-3.9867 5.0042c-.2012.2554-.5282.2554-.7336 0l-15.732885-19.7529c-.20122-.2555-.20122-.6659 0-.9213l5.089185-6.3861c.20122-.2554.5324-.2554.73362 0l14.63038 18.371c.8133 1.0176.8133 2.6717 0 3.6893z"/><path d="m31.2519 21.4406-3.9867 5.0042c-.2012.2554-.5324.2554-.7336 0l-14.6345-18.37106c-.8133-1.01759-.8133-2.6717 0-3.68928l2.8841-3.618095c.8133-1.017588 2.1296-1.017588 2.9387 0l13.5278 16.984935c.8133 1.0176.8133 2.6717 0 3.6893z"/><path d="m58.6223 31.4824c-4.0202 0-6.2462-1.516-6.9589-2.165-.3102-.2806-.4024-.3937-.1551-.7873l1.4547-2.3325c.2473-.3643.8342-.3099 1.0522-.1675.1216.0586 2.3518 1.5452 4.3933 1.5452 1.2367 0 2.1338-.7035 2.1338-1.6876 0-1.1809-1.0816-2.0812-3.186-2.8392-2.662-.9548-5.9989-2.8392-5.9989-6.2102 0-2.7848 2.3811-5.5946 7.1433-5.5946 3.2154 0 5.6929 1.4907 6.6193 2.1105.3689.1968.3102.7035.1845.9003l-1.5762 2.165c-.218.3099-.7714.5612-1.0523.3644-.2766-.1424-2.5362-1.6877-4.4226-1.6877-1.1109 0-1.9493.6743-1.9493 1.4322 0 1.0385.9306 1.8258 3.3704 2.7261 2.4105.8711 6.2462 2.588 6.2462 6.4071 0 2.8936-2.7542 5.8208-7.2984 5.8208z"/><path d="m96.7823 30.561h-3.3872c-.2599 0-.5156-.2093-.5449-.4187l-1.2912-8.057h-.0587l-4.8251 8.4506c-.088.155-.3437.2848-.4863.2848h-.5156c-.1719 0-.4024-.1298-.4863-.2848l-4.8544-8.4506h-.0587l-1.266 8.057c-.0293.2094-.2599.4187-.545.4187h-3.3872c-.3437 0-.6036-.2345-.5449-.5737l3.2446-17.5251c.0294-.2345.2851-.4187.5157-.4187h.4569c.1425 0 .4024.1046.4863.2596l6.6612 11.2688h.0587l6.6612-11.2688c.088-.155.3438-.2596.4863-.2596h.4611c.2306 0 .4863.1842.5156.4187l3.2489 17.5251c.0587.3392-.2012.5737-.545.5737z"/><path d="m143.813 23.1826c2.499-.9129 4.251-2.8434 4.251-5.2429 0-3.103-2.813-5.6323-6.263-5.6323h-8.585c-.315 0-.545.2345-.545.4941v17.2655c0 .2638.23.4941.545.4941h3.416c.29 0 .545-.2345.545-.4941v-6.6499h1.983l3.819 6.9095c.059.1047.231.2345.461.2345h3.819c.487 0 .692-.4187.487-.7579l-3.937-6.6248zm-2.385-3.0779h-4.251v-4.0704h4.251c1.178 0 2.18.8878 2.18 1.9808 0 1.0929-1.002 2.0854-2.18 2.0854z"/><path d="m173.544 15.6449c0 .2596-.231.4941-.545.4941h-5.873v13.928c0 .2638-.26.4941-.545.4941h-3.446c-.289 0-.545-.2345-.545-.4941v-13.928h-5.873c-.319 0-.545-.2345-.545-.4941v-2.8434c0-.2596.23-.4941.545-.4941h16.282c.314 0 .545.2345.545.4941z"/><path d="m228.976 29.8829-8.988-17.5503c-.088-.1549-.289-.2847-.491-.2847h-.285c-.201 0-.402.1298-.486.2847l-8.992 17.5503c-.172.3392.059.6784.49.6784h3.161c.575 0 .889-.3141 1.032-.624l1.035-2.0896h7.81l1.035 2.0603c.26.4941.487.6533 1.006.6533h3.191c.431 0 .662-.3392.486-.6784zm-11.805-5.5821 2.154-4.3049h.03l2.184 4.3049z"/><path d="m254.48 30.3517c0 .2596-.26.469-.545.469h-.457c-.088 0-.314-.0796-.373-.1298l-11.344-10.356h-.029v9.7278c0 .2638-.23.4942-.545.4942h-3.416c-.29 0-.545-.2345-.545-.4942l-.03-17.5502c0-.2597.26-.469.545-.469h.721l11.461 10.0167h.03v-9.2588c0-.2596.23-.4941.545-.4941h3.446c.289 0 .545.2345.545.4941v17.5545z"/><path d="m280.199 30.5361h-3.966c-.201 0-.457-.1047-.516-.1843l-6.632-8.191v7.7722c0 .3392-.314.624-.691.624h-3.362c-.403 0-.692-.2889-.692-.624v-17.0016c0-.3392.289-.6282.692-.6282h3.362c.373 0 .691.2848.691.6282v6.8593l6.376-7.2237c.118-.1298.374-.2596.545-.2596h3.618c.545 0 .834.5737.516.9673l-6.72 7.6424 7.323 8.66c.315.3894 0 .9631-.544.9631z"/><path d="m123.989 29.8829-8.988-17.5503c-.088-.1549-.289-.2847-.49-.2847h-.285c-.201 0-.403.1298-.486.2847l-8.992 17.5503c-.172.3392.058.6784.49.6784h3.161c.574 0 .889-.3141 1.031-.624l1.036-2.0896h7.809l1.036 2.0603c.26.4941.486.6533 1.006.6533h3.19c.432 0 .663-.3392.486-.6784zm-11.805-5.5821 2.155-4.3049h.029l2.185 4.3049z"/><path d="m198.5 21.2772c1.349-.6532 3.332-2.1147 3.332-4.1206 0-2.7387-2.787-4.8492-6.175-4.8492h-6.69c-.315 0-.545.2345-.545.4941v17.2655c0 .2638.23.4941.545.4941h7.122c3.417 0 6.263-2.1105 6.263-5.0335 0-2.3995-2.326-3.6767-3.848-4.2504zm-5.601-5.2135h2.239c1.09 0 2.012.7286 2.012 1.7713s-.918 1.8761-2.012 1.8761h-2.239v-3.6516zm2.612 10.7705h-2.616v-3.7312h2.326c1.12 0 2.356.7831 2.356 1.8258s-.947 1.9054-2.066 1.9054z"/></g></svg>