<svg xmlns="http://www.w3.org/2000/svg" width="5.58em" height="1em" viewBox="0 0 251 45" role="img" aria-label="SmartHR" class="logo-icon" data-astro-cid-wpf2phni data-icon="logo"> <title>SmartHR</title> <g fill="none"><path fill-rule="evenodd" clip-rule="evenodd" d="M164.835 14.0171C164.405 13.9421 163.905 13.8996 163.335 13.8996C162.117 13.8996 161.167 14.0171 160.072 14.6422C159.079 15.2098 158.297 15.8424 157.652 17.0126L157.482 15.0948C157.453 14.6883 157.114 14.3737 156.706 14.3747H151.256C150.828 14.3733 150.479 14.7192 150.478 15.1473V39.2609C150.477 39.689 150.823 40.0371 151.251 40.0385H157.099C157.527 40.0399 157.875 39.694 157.877 39.2659V24.7337C157.877 23.521 158.712 22.0033 159.667 21.3082C160.537 20.6731 161.512 20.233 162.832 20.118C163.2 20.0855 163.775 20.1105 164.553 20.183C165.003 20.2255 165.398 19.873 165.403 19.4179L165.478 14.7997C165.483 14.4121 165.203 14.0871 164.828 14.0196L164.835 14.0171ZM182.5 34.3952L181.368 34.4452C180.418 34.4452 179.747 34.2627 179.352 33.9001C178.957 33.5375 178.76 32.8499 178.76 31.8373V20.1881H182.275C182.703 20.1895 183.051 19.8436 183.053 19.4155V14.6848C183.054 14.2567 182.708 13.9086 182.28 13.9072H178.76V8.80642C178.761 8.37832 178.415 8.03022 177.987 8.02882H172.139C171.711 8.02742 171.363 8.37332 171.361 8.80142V13.9072H168.626C168.198 13.9058 167.85 14.2517 167.848 14.6798V19.4105C167.847 19.8386 168.193 20.1867 168.621 20.1881H171.359V32.735C171.359 35.4229 172.019 37.3932 173.339 38.6409C174.659 39.8886 176.564 40.5162 179.04 40.5162C180.403 40.5162 181.658 40.3512 182.808 40.0236C183.133 39.9311 183.358 39.6185 183.358 39.2735V35.1654C183.358 34.7028 182.958 34.3503 182.498 34.3903L182.5 34.3952ZM137.176 34.3127C136.408 34.7478 135.521 34.9628 134.508 34.9628C133.608 34.9628 132.883 34.7228 132.338 34.2377C131.793 33.7526 131.52 33.1275 131.52 32.3524C131.52 31.2447 131.9 30.3321 132.658 29.612C133.416 28.8919 134.583 28.5318 136.168 28.5318H138.826V32.7324C138.494 33.35 137.944 33.8751 137.176 34.3076L137.176 34.3127ZM141.209 14.9348C139.634 14.2472 137.829 13.9021 135.788 13.9021C133.588 13.9021 131.648 14.2672 129.962 14.9923C128.277 15.7174 126.982 16.7426 126.072 17.9802C125.349 18.9688 124.895 20.1287 124.757 21.3457C124.707 21.8033 125.074 22.2033 125.532 22.2033H131.388C131.768 22.2033 132.07 21.9183 132.138 21.5432C132.223 20.9664 132.511 20.4389 132.95 20.0555C133.525 19.5554 134.338 19.3054 135.381 19.3054C136.551 19.3054 137.416 19.6254 137.981 20.2655C138.546 20.9056 138.824 21.8032 138.824 22.9584V24.3586H136.073C132.123 24.3586 129.142 25.0912 127.142 26.5539C125.142 28.0166 124.142 30.0994 124.142 32.8048C124.142 34.275 124.529 35.6002 125.304 36.7804C126.079 37.9606 127.13 38.8757 128.46 39.5308C129.826 40.1949 131.329 40.5313 132.848 40.5134C135.536 40.5134 137.656 39.5958 139.204 37.763V39.2632C139.203 39.6913 139.548 40.0394 139.977 40.0408H145.492C145.92 40.0422 146.269 39.6963 146.27 39.2682L146.272 23.0108C146.272 21.0105 145.822 19.3678 144.932 18.005C144.042 16.6422 142.807 15.6221 141.232 14.9345L141.209 14.9348ZM240.274 19.4004C239.389 20.1855 238.099 20.5756 236.408 20.5756H230.908V11.6818H236.408C238.116 11.6818 239.409 12.0744 240.284 12.857C241.159 13.6396 241.599 14.7398 241.599 16.1475C241.599 17.5277 241.157 18.6104 240.274 19.398V19.4004ZM249.95 38.9109L243.199 25.6914C245.2 24.7913 246.687 23.5661 247.73 22.0158C248.773 20.4655 249.295 18.4403 249.295 15.9399C249.295 13.6946 248.778 11.7893 247.745 10.234C246.713 8.67872 245.22 7.49862 243.284 6.70102C241.349 5.90342 239.051 5.50082 236.393 5.50082H223.959C223.531 5.49942 223.183 5.84532 223.181 6.27342V39.2583C223.18 39.6864 223.526 40.0345 223.954 40.0359H230.11C230.538 40.0373 230.886 39.6914 230.888 39.2633V26.8689H235.646L242.057 39.6108C242.189 39.8736 242.458 40.0392 242.752 40.0384H249.253C249.835 40.0384 250.211 39.4233 249.945 38.9057L249.95 38.9109ZM216.8 5.46082H210.665C210.234 5.46082 209.884 5.81092 209.884 6.24092V20.5731H196.78V6.24102C196.78 5.81092 196.43 5.46092 196 5.46092H189.841C189.411 5.46092 189.061 5.81102 189.061 6.24102V39.2585C189.061 39.6886 189.411 40.0386 189.841 40.0386H196C196.43 40.0386 196.78 39.6885 196.78 39.2585V26.7716H209.889V39.2585C209.889 39.6886 210.24 40.0386 210.67 40.0386H216.805C217.236 40.0386 217.586 39.6885 217.586 39.2585V6.24102C217.586 5.81092 217.235 5.46092 216.805 5.46092L216.8 5.46082ZM19.3207 26.314C19.5207 26.384 19.7308 26.419 19.9333 26.419C20.7009 26.419 21.421 25.9389 21.6886 25.1688C22.0262 24.1987 21.5136 23.1385 20.5459 22.8009C17.86 21.8637 16.4424 18.9267 17.3796 16.2408C18.1011 14.1731 20.0512 12.7876 22.2412 12.7869C24.4338 12.7865 26.3864 14.1741 27.1069 16.2449C27.4445 17.215 28.5071 17.7276 29.4723 17.3901C30.4375 17.0526 30.955 15.9899 30.6175 15.0247C28.9799 10.4041 23.9065 7.98592 19.2859 9.62352C15.7608 10.8729 13.397 14.1977 13.3749 17.9376C13.377 21.7085 15.7614 25.0664 19.3208 26.3114L19.3207 26.314ZM112.242 13.8996C110.567 13.8996 109.087 14.2372 107.807 14.9073C106.521 15.5844 105.427 16.5762 104.629 17.7902C104.013 16.4775 103.133 15.5024 101.996 14.8598C100.858 14.2172 99.4952 13.8997 97.915 13.8997C96.3498 13.8997 94.9496 14.1922 93.7144 14.7748C92.4876 15.3553 91.415 16.2171 90.5839 17.2902L90.4039 15.0899C90.3725 14.6854 90.0345 14.3736 89.6288 14.3748H84.178C83.7499 14.3734 83.4018 14.7193 83.4004 15.1474V39.261C83.399 39.6891 83.7449 40.0372 84.173 40.0386H90.0214C90.4495 40.04 90.7976 39.6941 90.799 39.266V23.2086C91.2116 22.4985 91.7391 21.9484 92.3892 21.5584C93.0393 21.1684 93.7969 20.9783 94.6645 20.9783C95.4546 20.9783 96.1022 21.0858 96.6098 21.2983C97.1174 21.5108 97.5024 21.9109 97.7725 22.4985C98.0426 23.0861 98.1726 23.9062 98.1726 24.9639V39.266C98.1712 39.6941 98.5171 40.0422 98.9452 40.0436H104.794C105.222 40.045 105.57 39.6991 105.571 39.271V23.4886C105.951 22.6985 106.464 22.0809 107.114 21.6383C107.764 21.1957 108.544 20.9732 109.464 20.9732C110.254 20.9732 110.899 21.0807 111.397 21.2932C111.895 21.5057 112.28 21.9033 112.547 22.4809C112.815 23.0585 112.947 23.8686 112.947 24.9113V39.2585C112.946 39.6866 113.292 40.0347 113.72 40.0361H119.593C120.021 40.0375 120.37 39.6916 120.371 39.2635V23.8137C120.371 20.3032 119.663 17.7728 118.246 16.2226C116.828 14.6724 114.825 13.8973 112.232 13.8973L112.242 13.8996ZM40.7315 30.2346C40.7301 36.0453 36.0207 40.7559 30.2099 40.7587H14.2075C8.39585 40.7573 3.68485 36.0463 3.68345 30.2346V14.2322C3.68615 8.41852 8.40135 3.70782 14.215 3.71062C14.2217 3.71062 14.2284 3.71062 14.235 3.71062H30.2374C36.0472 3.71342 40.7562 8.42242 40.759 14.2322V30.2346H40.7315ZM40.2739 4.16812C38.9777 2.86892 37.4415 1.83382 35.7507 1.12012C33.9971 0.377623 32.1117 -0.00327744 30.2074 2.25566e-05H14.205C12.3007 -0.00337744 10.4153 0.377623 8.66175 1.12022C6.97095 1.83382 5.43485 2.86902 4.13855 4.16822C2.83335 5.47342 1.80565 6.99362 1.08805 8.69392C0.356946 10.449 -0.0129537 12.3334 0.000346325 14.2347V30.2371C-0.00305368 32.1414 0.377946 34.0268 1.12055 35.7804C1.83495 37.4714 2.87095 39.0076 4.17105 40.3036C5.46725 41.6028 7.00345 42.6379 8.69425 43.3516C10.4478 44.0941 12.3332 44.4751 14.2375 44.4718H30.2399C32.1442 44.4752 34.0296 44.0942 35.7832 43.3516C37.474 42.638 39.0101 41.6028 40.3064 40.3036C41.6116 38.9984 42.6393 37.4782 43.3569 35.7779C44.0994 34.0243 44.4804 32.1389 44.4771 30.2346V14.2322C44.4805 12.3279 44.0995 10.4425 43.3569 8.68892C42.6393 6.99362 41.6141 5.47092 40.3064 4.16322L40.2739 4.16812ZM25.1216 18.1552C24.1515 17.8176 23.0913 18.3302 22.7537 19.2979C22.4161 20.2656 22.9287 21.3282 23.8964 21.6658C26.5823 22.603 27.9999 25.54 27.0627 28.2259C26.3412 30.2936 24.3911 31.6791 22.2011 31.6798C20.0085 31.6803 18.0559 30.2926 17.3354 28.2218C16.9978 27.2517 15.9352 26.7391 14.97 27.0766C14.0048 27.4141 13.4873 28.4718 13.8248 29.442C15.4624 34.0626 20.5358 36.4808 25.1564 34.8432C28.6815 33.5938 31.0453 30.269 31.0674 26.5291C31.0653 22.7582 28.6811 19.4002 25.1216 18.1552ZM72.6087 20.013L67.5679 18.0127C64.585 16.845 62.4296 15.9999 62.4296 13.9321C62.4296 11.8643 64.1474 10.6466 67.0303 10.6466C69.4557 10.6466 71.536 11.3267 73.8313 12.8969C74.1673 13.1226 74.6204 13.0518 74.8715 12.7344L77.9645 8.84132C78.227 8.51132 78.1745 8.03622 77.857 7.75862C74.9641 5.24322 70.9911 3.76302 67.0304 3.76302C59.7094 3.76302 54.1885 8.34372 54.1885 14.4196C54.1885 20.563 59.1968 23.2209 61.3496 24.071L66.5904 26.2763C69.3908 27.4465 71.2411 28.2216 71.2411 30.3519C71.2411 31.6346 70.591 33.7849 66.2554 33.7849C63.72 33.7849 60.6646 32.6097 58.0867 30.6669C57.7542 30.4169 57.2866 30.4619 57.0265 30.7819L53.4185 35.1751C53.1478 35.5019 53.1902 35.9855 53.5135 36.2603C56.964 39.1007 61.4797 40.716 66.0654 40.716C75.3568 40.716 79.5874 34.9651 79.5874 29.6718C79.5874 24.9961 77.3721 21.9281 72.6189 20.0204L72.6087 20.013Z" fill="currentColor"/></g> </svg>
