<svg xmlns="http://www.w3.org/2000/svg" viewBox="0 0 114 30"><path d="M0 6.38h7.63v22.84h5.82V6.38h7.64V.7H0v5.68zm89.64 14.29a11.79 11.79 0 00.22-2.23 11.14 11.14 0 10-22.28 0 11.3 11.3 0 0011.14 11.45 11.14 11.14 0 0010.33-7.18h-6.27a5.35 5.35 0 01-4.06 1.93 5.66 5.66 0 01-5.24-4zm-10.92-8.43A5.61 5.61 0 0183.86 16H73.57a5.61 5.61 0 015.15-3.76zm35.07 8.43a11.79 11.79 0 00.21-2.23 11.14 11.14 0 10-22.28 0 11.3 11.3 0 0011.14 11.45 11.13 11.13 0 0010.33-7.18h-6.27a5.34 5.34 0 01-4.06 1.93 5.66 5.66 0 01-5.24-4zm-10.93-8.43A5.61 5.61 0 01108 16H97.71a5.63 5.63 0 015.15-3.76zM23.64 8.67h5.67v20.55h-5.67zM26.47.11a3.39 3.39 0 103.39 3.39A3.39 3.39 0 0026.47.11zM56.19 7.1a8 8 0 00-6.67 3c-2.2-2.85-6.27-3-7.1-3a9.16 9.16 0 00-9.27 9.38v12.74h5.66V18.53c0-2.16 0-6.18 3.61-6.18 3.3 0 3.79 3.15 3.79 5v11.87h5.67V18.36c0-1.25 0-3.14.69-4.24a3.72 3.72 0 013.14-1.77c2.4 0 3.56 1.64 3.56 5v11.87h5.67V16.78c0-3.63-1-5.53-1.63-6.33a8.36 8.36 0 00-7.12-3.35z"/></svg>